<?xml version="1.0" encoding="UTF-8" standalone="no" ?>
<!DOCTYPE svg PUBLIC "-//W3C//DTD SVG 1.1//EN" "http://www.w3.org/Graphics/SVG/1.1/DTD/svg11.dtd">
<svg xmlns="http://www.w3.org/2000/svg" xmlns:xlink="http://www.w3.org/1999/xlink" version="1.1" width="1280" height="1024" viewBox="0 0 1280 1024" xml:space="preserve">
<desc>Created with Fabric.js 3.6.3</desc>
<defs>
</defs>
<g transform="matrix(1.9662058371735787 0 0 1.9662058371735787 640.2456813819576 512.1966205837173)" id="background-logo"  >
<rect style="stroke: none; stroke-width: 1; stroke-dasharray: none; stroke-linecap: butt; stroke-dashoffset: 0; stroke-linejoin: miter; stroke-miterlimit: 4; fill: rgb(255,236,161); fill-rule: nonzero; opacity: 1;"  paint-order="stroke"  x="-325" y="-260" rx="0" ry="0" width="650" height="520" />
</g>
<g transform="matrix(1.9699870022450665 0 0 1.9699870022450665 709.6215080108808 491.6741774113862)" id="text-logo-path"  >
<path style="stroke: none; stroke-width: 1; stroke-dasharray: none; stroke-linecap: butt; stroke-dashoffset: 0; stroke-linejoin: miter; stroke-miterlimit: 10; fill: rgb(167,21,21); fill-rule: nonzero; opacity: 1;"  paint-order="stroke"  transform=" translate(-165.27, 16.35)" d="M 0.84 -33.36 L 0.07 -34.28 Q 0.92 -34.97 1.96 -35.65 Q 3 -36.33 4.21 -36.84 Q 5.42 -37.35 6.81 -37.68 Q 8.2 -38.01 9.74 -38.01 L 9.74 -38.01 Q 12.12 -38.01 13.44 -37.37 Q 14.76 -36.73 15.38 -35.8 Q 16 -34.86 16.13 -33.8 Q 16.26 -32.74 16.26 -31.93 L 16.26 -31.93 L 16.26 -3.3 Q 16.26 -2.82 16.09 -2.14 Q 15.93 -1.46 15.33 -0.86 Q 14.72 -0.26 13.59 0.16 Q 12.45 0.59 10.51 0.59 L 10.51 0.59 Q 8.57 0.59 7.47 0.13 Q 6.37 -0.33 5.82 -0.95 Q 5.27 -1.57 5.15 -2.23 Q 5.02 -2.89 5.02 -3.3 L 5.02 -3.3 L 5.02 -31.57 Q 5.02 -32.63 4.52 -33.42 Q 4.03 -34.2 2.86 -34.2 L 2.86 -34.2 Q 2.23 -34.2 1.79 -33.98 Q 1.35 -33.76 0.84 -33.36 L 0.84 -33.36 Z M 3.88 -46.36 L 3.88 -46.36 Q 3.88 -47.39 4.34 -48.32 Q 4.8 -49.26 5.62 -49.95 Q 6.45 -50.65 7.53 -51.05 Q 8.61 -51.45 9.89 -51.45 L 9.89 -51.45 Q 11.13 -51.45 12.21 -51.05 Q 13.29 -50.65 14.1 -49.95 Q 14.9 -49.26 15.36 -48.32 Q 15.82 -47.39 15.82 -46.36 L 15.82 -46.36 Q 15.82 -45.3 15.36 -44.38 Q 14.9 -43.47 14.1 -42.79 Q 13.29 -42.11 12.21 -41.71 Q 11.13 -41.31 9.89 -41.31 L 9.89 -41.31 Q 8.61 -41.31 7.53 -41.71 Q 6.45 -42.11 5.62 -42.79 Q 4.8 -43.47 4.34 -44.38 Q 3.88 -45.3 3.88 -46.36 Z M 21.75 -33.36 L 20.98 -34.28 Q 21.83 -34.97 22.87 -35.65 Q 23.91 -36.33 25.12 -36.84 Q 26.33 -37.35 27.72 -37.68 Q 29.11 -38.01 30.65 -38.01 L 30.65 -38.01 Q 33.03 -38.01 34.35 -37.23 Q 35.67 -36.44 36.29 -35.34 Q 36.91 -34.24 37.04 -33.05 Q 37.17 -31.86 37.17 -31.05 L 37.17 -31.05 Q 38.53 -33 40.25 -34.53 L 40.25 -34.53 Q 40.94 -35.19 41.8 -35.82 Q 42.66 -36.44 43.63 -36.93 Q 44.6 -37.43 45.68 -37.72 Q 46.77 -38.01 47.9 -38.01 L 47.9 -38.01 Q 50.39 -38.01 52.31 -37.06 Q 54.24 -36.11 55.55 -33.87 Q 56.87 -31.64 57.57 -27.96 Q 58.26 -24.28 58.26 -18.82 L 58.26 -18.82 Q 58.26 -13.51 57.31 -9.59 Q 56.36 -5.68 54.82 -2.93 Q 53.28 -0.18 51.34 1.56 Q 49.4 3.3 47.42 4.28 Q 45.45 5.27 43.63 5.66 Q 41.82 6.04 40.5 6.08 L 40.5 6.08 L 40.1 4.58 Q 41.2 4.32 42.13 3.77 Q 43.07 3.22 43.84 2.16 Q 44.6 1.1 45.19 -0.53 Q 45.78 -2.16 46.2 -4.61 Q 46.62 -7.07 46.82 -10.42 Q 47.02 -13.77 47.02 -18.24 L 47.02 -18.24 Q 47.02 -22.85 46.6 -25.62 Q 46.18 -28.38 45.48 -29.83 Q 44.79 -31.27 43.95 -31.73 Q 43.1 -32.19 42.22 -32.19 L 42.22 -32.19 Q 41.16 -32.19 40.34 -31.62 Q 39.51 -31.05 38.91 -30.32 Q 38.31 -29.59 37.88 -28.86 Q 37.46 -28.13 37.17 -27.76 L 37.17 -27.76 L 37.17 -3.3 Q 37.17 -2.82 37.02 -2.14 Q 36.88 -1.46 36.31 -0.86 Q 35.74 -0.26 34.63 0.16 Q 33.51 0.59 31.57 0.59 L 31.57 0.59 Q 29.63 0.59 28.51 0.13 Q 27.39 -0.33 26.81 -0.95 Q 26.22 -1.57 26.07 -2.23 Q 25.93 -2.89 25.93 -3.3 L 25.93 -3.3 L 25.93 -31.57 Q 25.93 -32.63 25.43 -33.42 Q 24.94 -34.2 23.77 -34.2 L 23.77 -34.2 Q 23.14 -34.2 22.71 -33.98 Q 22.27 -33.76 21.75 -33.36 L 21.75 -33.36 Z M 63.5 11.17 L 63.5 11.17 Q 63.5 9.89 64.09 8.81 Q 64.67 7.73 65.64 6.83 Q 66.61 5.93 67.82 5.22 Q 69.03 4.5 70.28 3.88 L 70.28 3.88 Q 68.44 3.11 67.22 1.56 Q 65.99 0 65.99 -2.56 L 65.99 -2.56 Q 65.99 -3.92 66.47 -5.07 Q 66.94 -6.23 67.69 -7.2 Q 68.44 -8.17 69.34 -8.95 Q 70.24 -9.74 71.08 -10.29 L 71.08 -10.29 Q 69.58 -11.17 68.32 -12.43 Q 67.05 -13.7 66.16 -15.29 Q 65.26 -16.88 64.76 -18.82 Q 64.27 -20.76 64.27 -23.03 L 64.27 -23.03 Q 64.27 -26.77 65.57 -29.57 Q 66.87 -32.37 69.07 -34.26 Q 71.26 -36.15 74.16 -37.08 Q 77.05 -38.01 80.24 -38.01 L 80.24 -38.01 Q 83.42 -38.01 86.28 -37.17 Q 89.14 -36.33 91.33 -34.57 L 91.33 -34.57 Q 92.03 -35.63 92.47 -36.8 Q 92.91 -37.98 92.91 -39.15 L 92.91 -39.15 Q 92.91 -40.69 92.08 -41.6 Q 91.26 -42.52 89.98 -42.52 L 89.98 -42.52 L 89.98 -43.58 Q 90.78 -43.84 91.41 -44.04 Q 92.03 -44.24 92.54 -44.35 Q 93.05 -44.46 93.57 -44.51 Q 94.08 -44.57 94.7 -44.57 L 94.7 -44.57 Q 96.42 -44.57 97.34 -43.51 Q 98.25 -42.44 98.25 -40.58 L 98.25 -40.58 Q 98.25 -39.48 97.74 -38.4 Q 97.23 -37.32 96.46 -36.33 Q 95.69 -35.34 94.76 -34.46 Q 93.82 -33.58 92.98 -32.92 L 92.98 -32.92 Q 94.52 -31.16 95.36 -28.82 Q 96.2 -26.48 96.2 -23.47 L 96.2 -23.47 Q 96.2 -19.7 94.9 -16.81 Q 93.6 -13.92 91.41 -11.94 Q 89.21 -9.96 86.32 -8.95 Q 83.42 -7.95 80.24 -7.95 L 80.24 -7.95 Q 78.37 -7.95 76.57 -8.28 Q 74.78 -8.61 73.21 -9.23 L 73.21 -9.23 Q 72.62 -8.79 72.2 -8.13 Q 71.78 -7.47 71.78 -6.67 L 71.78 -6.67 Q 71.78 -5.31 72.95 -4.65 Q 74.12 -3.99 76.06 -3.7 Q 78 -3.41 80.46 -3.33 Q 82.91 -3.26 85.49 -3.09 Q 88.07 -2.93 90.53 -2.47 Q 92.98 -2.01 94.92 -0.97 Q 96.86 0.07 98.03 1.87 Q 99.21 3.66 99.21 6.52 L 99.21 6.52 Q 99.21 8.61 98.33 10.27 Q 97.45 11.94 95.97 13.2 Q 94.48 14.47 92.52 15.36 Q 90.56 16.26 88.39 16.83 Q 86.21 17.4 83.95 17.65 Q 81.7 17.91 79.65 17.91 L 79.65 17.91 Q 75.92 17.91 72.93 17.52 Q 69.95 17.14 67.86 16.33 Q 65.77 15.53 64.64 14.25 Q 63.5 12.96 63.5 11.17 Z M 69.36 10.36 L 69.36 10.36 Q 69.36 11.76 70.17 12.69 Q 70.97 13.62 72.34 14.17 Q 73.72 14.72 75.53 14.94 Q 77.34 15.16 79.36 15.16 L 79.36 15.16 Q 82.03 15.16 84.16 14.7 Q 86.28 14.25 87.74 13.46 Q 89.21 12.67 89.98 11.65 Q 90.75 10.62 90.75 9.45 L 90.75 9.45 Q 90.75 8.28 89.83 7.53 Q 88.92 6.77 87.43 6.32 Q 85.95 5.86 84.06 5.62 Q 82.18 5.38 80.24 5.26 Q 78.3 5.13 76.46 5.02 Q 74.63 4.91 73.28 4.72 L 73.28 4.72 Q 72.51 5.27 71.8 5.91 Q 71.08 6.56 70.55 7.27 Q 70.02 7.98 69.69 8.77 Q 69.36 9.56 69.36 10.36 Z M 75.29 -23.03 L 75.29 -23.03 Q 75.29 -20.87 75.51 -18.79 Q 75.73 -16.7 76.28 -15.05 Q 76.83 -13.4 77.78 -12.4 Q 78.74 -11.39 80.24 -11.39 L 80.24 -11.39 Q 81.74 -11.39 82.69 -12.45 Q 83.64 -13.51 84.19 -15.22 Q 84.74 -16.92 84.96 -19.04 Q 85.18 -21.17 85.18 -23.33 L 85.18 -23.33 Q 85.18 -25.45 84.96 -27.47 Q 84.74 -29.48 84.19 -31.05 Q 83.64 -32.63 82.69 -33.6 Q 81.74 -34.57 80.24 -34.57 L 80.24 -34.57 Q 78.74 -34.57 77.78 -33.56 Q 76.83 -32.56 76.28 -30.93 Q 75.73 -29.3 75.51 -27.23 Q 75.29 -25.16 75.29 -23.03 Z M 100.34 -33.36 L 99.57 -34.28 Q 100.42 -34.97 101.46 -35.65 Q 102.5 -36.33 103.71 -36.84 Q 104.92 -37.35 106.31 -37.68 Q 107.7 -38.01 109.24 -38.01 L 109.24 -38.01 Q 110.89 -38.01 112.06 -37.5 Q 113.23 -36.99 114.02 -36.27 Q 114.81 -35.56 115.21 -34.77 Q 115.61 -33.98 115.69 -33.44 L 115.69 -33.44 Q 116.42 -34.46 117.43 -35.3 Q 118.43 -36.15 119.62 -36.75 Q 120.81 -37.35 122.15 -37.68 Q 123.49 -38.01 124.91 -38.01 L 124.91 -38.01 Q 127.84 -38.01 130.22 -36.8 Q 132.6 -35.6 134.31 -33.22 Q 136.01 -30.83 136.93 -27.32 Q 137.84 -23.8 137.84 -19.19 L 137.84 -19.19 Q 137.84 -13.84 136.72 -10.09 Q 135.61 -6.34 133.8 -3.96 Q 131.98 -1.57 129.66 -0.49 Q 127.33 0.59 124.91 0.59 L 124.91 0.59 Q 122.9 0.59 121.38 0.18 Q 119.86 -0.22 118.76 -0.81 Q 117.66 -1.39 116.93 -2 Q 116.2 -2.6 115.76 -3 L 115.76 -3 L 115.76 14.87 Q 115.76 15.34 115.61 16 Q 115.47 16.66 114.9 17.27 Q 114.33 17.87 113.21 18.31 Q 112.1 18.75 110.16 18.75 L 110.16 18.75 Q 108.22 18.75 107.1 18.29 Q 105.98 17.83 105.4 17.19 Q 104.81 16.55 104.66 15.91 Q 104.52 15.27 104.52 14.87 L 104.52 14.87 L 104.52 -31.57 Q 104.52 -32.63 104.02 -33.42 Q 103.53 -34.2 102.36 -34.2 L 102.36 -34.2 Q 101.73 -34.2 101.29 -33.98 Q 100.85 -33.76 100.34 -33.36 L 100.34 -33.36 Z M 115.76 -28.64 L 115.76 -8.24 Q 115.76 -7.95 116.02 -7.21 Q 116.27 -6.48 116.82 -5.71 Q 117.37 -4.94 118.23 -4.34 Q 119.09 -3.74 120.34 -3.74 L 120.34 -3.74 Q 121.95 -3.74 123.08 -4.96 Q 124.22 -6.19 124.95 -8.29 Q 125.68 -10.4 126.01 -13.2 Q 126.34 -16 126.34 -19.19 L 126.34 -19.19 Q 126.34 -23.11 125.92 -25.82 Q 125.5 -28.53 124.69 -30.19 Q 123.89 -31.86 122.77 -32.61 Q 121.66 -33.36 120.26 -33.36 L 120.26 -33.36 Q 119.46 -33.36 118.65 -32.9 Q 117.85 -32.45 117.21 -31.77 Q 116.56 -31.09 116.16 -30.25 Q 115.76 -29.41 115.76 -28.64 L 115.76 -28.64 Z M 141.06 -33.36 L 140.3 -34.28 Q 141.14 -34.97 142.18 -35.65 Q 143.23 -36.33 144.43 -36.84 Q 145.64 -37.35 147.03 -37.68 Q 148.43 -38.01 149.96 -38.01 L 149.96 -38.01 Q 151.54 -38.01 152.66 -37.59 Q 153.77 -37.17 154.49 -36.49 Q 155.2 -35.82 155.6 -34.97 Q 156.01 -34.13 156.21 -33.27 Q 156.41 -32.41 156.45 -31.62 Q 156.48 -30.83 156.48 -30.29 L 156.48 -30.29 Q 157.87 -32.41 159.45 -34.13 L 159.45 -34.13 Q 160.11 -34.86 160.88 -35.56 Q 161.65 -36.25 162.47 -36.8 Q 163.29 -37.35 164.17 -37.68 Q 165.05 -38.01 165.93 -38.01 L 165.93 -38.01 Q 167.8 -38.01 168.86 -36.9 Q 169.92 -35.78 169.92 -33.76 L 169.92 -33.76 Q 169.92 -32.52 169.72 -31.37 Q 169.52 -30.21 168.93 -28.56 L 168.93 -28.56 L 167.91 -28.56 Q 167.69 -29.7 166.88 -30.45 Q 166.08 -31.2 164.54 -31.2 L 164.54 -31.2 Q 163.4 -31.2 162.3 -30.78 Q 161.21 -30.36 160.16 -29.74 Q 159.12 -29.11 158.18 -28.38 Q 157.25 -27.65 156.48 -26.99 L 156.48 -26.99 L 156.48 -3.22 Q 156.48 -2.75 156.34 -2.09 Q 156.19 -1.43 155.62 -0.84 Q 155.05 -0.26 153.94 0.16 Q 152.82 0.59 150.88 0.59 L 150.88 0.59 Q 148.94 0.59 147.82 0.13 Q 146.7 -0.33 146.12 -0.95 Q 145.53 -1.57 145.39 -2.23 Q 145.24 -2.89 145.24 -3.3 L 145.24 -3.3 L 145.24 -31.57 Q 145.24 -32.63 144.74 -33.42 Q 144.25 -34.2 143.08 -34.2 L 143.08 -34.2 Q 142.46 -34.2 142.02 -33.98 Q 141.58 -33.76 141.06 -33.36 L 141.06 -33.36 Z M 171.5 -18.75 L 171.5 -18.75 Q 171.5 -23.55 172.89 -27.15 Q 174.28 -30.76 176.61 -33.18 Q 178.93 -35.6 182.01 -36.8 Q 185.08 -38.01 188.45 -38.01 L 188.45 -38.01 Q 191.82 -38.01 194.9 -36.9 Q 197.97 -35.78 200.3 -33.47 Q 202.62 -31.16 204.02 -27.63 Q 205.41 -24.1 205.41 -19.26 L 205.41 -19.26 Q 205.41 -14.47 204.02 -10.77 Q 202.62 -7.07 200.3 -4.54 Q 197.97 -2.01 194.9 -0.71 Q 191.82 0.59 188.45 0.59 L 188.45 0.59 Q 185.08 0.59 182.01 -0.64 Q 178.93 -1.87 176.61 -4.28 Q 174.28 -6.7 172.89 -10.33 Q 171.5 -13.95 171.5 -18.75 Z M 182.92 -18.75 L 182.92 -18.75 Q 182.92 -15.82 183.11 -13.02 Q 183.29 -10.22 183.87 -8.02 Q 184.46 -5.82 185.56 -4.49 Q 186.66 -3.15 188.45 -3.15 L 188.45 -3.15 Q 190.25 -3.15 191.35 -4.54 Q 192.44 -5.93 193.03 -8.2 Q 193.62 -10.47 193.82 -13.33 Q 194.02 -16.19 194.02 -19.12 L 194.02 -19.12 Q 194.02 -22.05 193.82 -24.77 Q 193.62 -27.5 193.03 -29.63 Q 192.44 -31.75 191.35 -33.01 Q 190.25 -34.28 188.45 -34.28 L 188.45 -34.28 Q 186.66 -34.28 185.56 -32.94 Q 184.46 -31.6 183.87 -29.43 Q 183.29 -27.25 183.11 -24.46 Q 182.92 -21.68 182.92 -18.75 Z M 212.77 -34.86 L 208.67 -34.86 L 208.67 -37.5 Q 209.69 -37.5 211.52 -38.03 Q 213.35 -38.56 215.28 -39.81 Q 217.2 -41.05 218.85 -43.14 Q 220.5 -45.23 221.19 -48.3 L 221.19 -48.3 L 224.12 -48.3 L 224.12 -37.5 L 230.09 -37.5 Q 233.02 -37.5 233.02 -38.49 L 233.02 -38.49 Q 233.02 -38.85 232.65 -38.98 Q 232.29 -39.11 231.83 -39.31 Q 231.37 -39.51 231.01 -39.88 Q 230.64 -40.25 230.64 -41.09 L 230.64 -41.09 Q 230.64 -42.11 231.28 -42.7 Q 231.92 -43.29 232.95 -43.29 L 232.95 -43.29 Q 233.61 -43.29 234.1 -43.01 Q 234.59 -42.74 234.92 -42.28 Q 235.25 -41.82 235.42 -41.24 Q 235.58 -40.65 235.58 -40.06 L 235.58 -40.06 Q 235.58 -37.68 234.21 -36.27 Q 232.84 -34.86 229.8 -34.86 L 229.8 -34.86 L 224.12 -34.86 L 224.12 -7.8 Q 224.12 -5.86 224.85 -5.11 Q 225.59 -4.36 226.87 -4.36 L 226.87 -4.36 Q 227.86 -4.36 228.63 -4.91 Q 229.39 -5.46 229.94 -6.15 L 229.94 -6.15 Q 230.6 -6.92 231.08 -7.95 L 231.08 -7.95 L 232.21 -7.43 Q 231.67 -6.26 230.91 -4.87 Q 230.16 -3.48 228.92 -2.29 Q 227.67 -1.1 225.79 -0.29 Q 223.9 0.51 221.04 0.51 L 221.04 0.51 Q 219.43 0.51 217.95 0.04 Q 216.47 -0.44 215.31 -1.46 Q 214.16 -2.49 213.46 -4.03 Q 212.77 -5.57 212.77 -7.73 L 212.77 -7.73 L 212.77 -34.86 Z M 234.45 -17.91 L 234.45 -17.91 Q 234.45 -21.24 235.29 -24.02 Q 236.13 -26.81 237.58 -29.04 Q 239.03 -31.27 240.95 -32.96 Q 242.87 -34.64 245 -35.76 Q 247.12 -36.88 249.33 -37.45 Q 251.55 -38.01 253.6 -38.01 L 253.6 -38.01 Q 256.31 -38.01 258.33 -37.43 Q 260.34 -36.84 261.68 -35.85 Q 263.01 -34.86 263.67 -33.56 Q 264.33 -32.26 264.33 -30.83 L 264.33 -30.83 Q 264.33 -29.11 263.34 -27.74 Q 262.35 -26.37 260.71 -25.34 L 260.71 -25.34 L 246.24 -16.81 Q 246.24 -15.64 246.59 -14.26 Q 246.94 -12.89 247.6 -11.5 Q 248.25 -10.11 249.22 -8.84 Q 250.2 -7.58 251.46 -6.59 Q 252.72 -5.6 254.26 -5.02 Q 255.8 -4.43 257.63 -4.43 L 257.63 -4.43 Q 258.91 -4.43 260.01 -4.72 Q 261.11 -5.02 262.06 -5.53 Q 263.01 -6.04 263.89 -6.72 Q 264.77 -7.4 265.65 -8.17 L 265.65 -8.17 L 266.56 -7.29 Q 265.72 -6.15 264.4 -4.8 Q 263.09 -3.44 261.22 -2.25 Q 259.35 -1.06 256.86 -0.27 Q 254.37 0.51 251.18 0.51 L 251.18 0.51 Q 248 0.51 244.98 -0.64 Q 241.96 -1.79 239.61 -4.1 Q 237.27 -6.41 235.86 -9.85 Q 234.45 -13.29 234.45 -17.91 Z M 245.87 -19.81 L 245.87 -19.81 L 253.6 -24.24 Q 254.08 -24.54 254.39 -24.81 Q 254.7 -25.09 254.88 -25.47 Q 255.07 -25.85 255.16 -26.42 Q 255.25 -26.99 255.25 -27.83 L 255.25 -27.83 Q 255.25 -28.75 255.05 -29.86 Q 254.85 -30.98 254.37 -31.97 Q 253.89 -32.96 253.16 -33.62 Q 252.43 -34.28 251.4 -34.28 L 251.4 -34.28 Q 250.09 -34.28 249.15 -33.49 Q 248.22 -32.7 247.61 -31.46 Q 247.01 -30.21 246.66 -28.62 Q 246.31 -27.03 246.13 -25.42 Q 245.95 -23.8 245.91 -22.32 Q 245.87 -20.84 245.87 -19.81 Z M 268.8 -9.45 L 268.8 -9.45 Q 268.8 -12.78 270.12 -14.9 Q 271.44 -17.03 273.58 -18.48 Q 275.72 -19.92 278.45 -20.95 Q 281.18 -21.97 284.03 -23.11 L 284.03 -23.11 Q 286.16 -23.95 287.13 -25.62 Q 288.1 -27.28 288.1 -29.04 L 288.1 -29.04 Q 288.1 -31.75 286.51 -33.38 Q 284.91 -35.01 282.17 -35.01 L 282.17 -35.01 Q 280.92 -35.01 279.86 -34.72 Q 278.8 -34.42 278.03 -33.98 Q 277.26 -33.54 276.82 -33.01 Q 276.38 -32.48 276.38 -32.01 L 276.38 -32.01 Q 276.38 -31.46 276.95 -31.22 Q 277.51 -30.98 278.21 -30.67 Q 278.91 -30.36 279.47 -29.79 Q 280.04 -29.22 280.04 -28.05 L 280.04 -28.05 Q 280.04 -27.28 279.73 -26.64 Q 279.42 -26 278.89 -25.51 Q 278.36 -25.01 277.64 -24.74 Q 276.93 -24.46 276.16 -24.46 L 276.16 -24.46 Q 274.11 -24.46 272.85 -25.85 Q 271.58 -27.25 271.58 -29.55 L 271.58 -29.55 Q 271.58 -31.79 272.75 -33.38 Q 273.93 -34.97 275.81 -36 Q 277.7 -37.02 280.08 -37.52 Q 282.46 -38.01 284.84 -38.01 L 284.84 -38.01 Q 287.7 -38.01 290.3 -37.39 Q 292.9 -36.77 294.89 -35.41 Q 296.89 -34.06 298.08 -31.97 Q 299.27 -29.88 299.27 -26.92 L 299.27 -26.92 L 299.27 -6.23 Q 299.27 -5.9 299.3 -5.49 Q 299.34 -5.09 299.49 -4.76 Q 299.63 -4.43 299.93 -4.21 Q 300.22 -3.99 300.77 -3.99 L 300.77 -3.99 Q 301.43 -3.99 302 -4.49 Q 302.56 -4.98 303 -5.49 L 303 -5.49 L 303.92 -4.72 Q 303.37 -3.96 302.6 -3.04 Q 301.83 -2.12 300.73 -1.32 Q 299.63 -0.51 298.17 0.04 Q 296.7 0.59 294.84 0.59 L 294.84 0.59 Q 292.53 0.59 290.73 -0.79 Q 288.94 -2.16 288.39 -5.02 L 288.39 -5.02 Q 287.22 -3.44 285.96 -2.38 Q 284.69 -1.32 283.37 -0.66 Q 282.06 0 280.72 0.29 Q 279.38 0.59 278.03 0.59 L 278.03 0.59 Q 276.27 0.59 274.62 0.04 Q 272.97 -0.51 271.67 -1.7 Q 270.37 -2.89 269.59 -4.8 Q 268.8 -6.7 268.8 -9.45 Z M 279.53 -11.87 L 279.53 -11.87 Q 279.53 -9.74 279.84 -8.35 Q 280.15 -6.96 280.68 -6.13 Q 281.21 -5.31 281.91 -4.98 Q 282.6 -4.65 283.37 -4.65 L 283.37 -4.65 Q 284.33 -4.65 285.17 -5.15 Q 286.01 -5.64 286.63 -6.41 Q 287.26 -7.18 287.62 -8.13 Q 287.99 -9.08 287.99 -10.03 L 287.99 -10.03 L 287.99 -18.97 Q 287.99 -19.89 287.4 -20.36 Q 286.82 -20.84 285.9 -20.84 L 285.9 -20.84 Q 284.62 -20.84 283.47 -20.25 Q 282.31 -19.67 281.43 -18.53 Q 280.55 -17.4 280.04 -15.73 Q 279.53 -14.06 279.53 -11.87 Z M 305.02 -6.23 L 305.02 -6.23 L 306.3 -7.14 Q 306.77 -6.59 307.51 -5.95 Q 308.24 -5.31 309.14 -4.76 Q 310.03 -4.21 311.06 -3.86 Q 312.08 -3.52 313.15 -3.52 L 313.15 -3.52 Q 315.78 -3.52 317.47 -4.78 Q 319.15 -6.04 319.15 -8.53 L 319.15 -8.53 Q 319.15 -9.92 318.24 -11.41 Q 317.32 -12.89 315.93 -14.47 Q 314.54 -16.04 312.93 -17.72 Q 311.32 -19.41 309.92 -21.2 Q 308.53 -23 307.62 -24.9 Q 306.7 -26.81 306.7 -28.86 L 306.7 -28.86 Q 306.7 -31.16 307.64 -32.89 Q 308.57 -34.61 310.13 -35.74 Q 311.68 -36.88 313.68 -37.45 Q 315.67 -38.01 317.8 -38.01 L 317.8 -38.01 Q 320.25 -38.01 322.27 -37.57 Q 324.28 -37.13 325.73 -36.24 Q 327.17 -35.34 327.96 -33.98 Q 328.75 -32.63 328.75 -30.83 L 328.75 -30.83 Q 328.75 -29.44 327.83 -28.42 Q 326.92 -27.39 325.27 -27.39 L 325.27 -27.39 Q 323.69 -27.39 322.87 -28.07 Q 322.05 -28.75 322.05 -29.92 L 322.05 -29.92 Q 322.05 -30.69 322.43 -31.13 Q 322.81 -31.57 323.29 -31.84 Q 323.77 -32.12 324.15 -32.32 Q 324.54 -32.52 324.54 -32.85 L 324.54 -32.85 Q 324.54 -33.87 323.44 -34.48 Q 322.34 -35.08 320.62 -35.08 L 320.62 -35.08 Q 319.78 -35.08 319.02 -34.86 Q 318.27 -34.64 317.69 -34.15 Q 317.1 -33.65 316.77 -32.9 Q 316.44 -32.15 316.44 -31.13 L 316.44 -31.13 Q 316.44 -29.7 317.49 -28.29 Q 318.53 -26.88 320.09 -25.36 Q 321.64 -23.84 323.46 -22.21 Q 325.27 -20.58 326.82 -18.77 Q 328.38 -16.96 329.43 -14.9 Q 330.47 -12.85 330.47 -10.51 L 330.47 -10.51 Q 330.47 -7.87 329.57 -5.82 Q 328.67 -3.77 327.01 -2.34 Q 325.34 -0.92 322.98 -0.16 Q 320.62 0.59 317.72 0.59 L 317.72 0.59 Q 315.2 0.59 313.15 -0.13 Q 311.1 -0.84 309.5 -1.89 Q 307.91 -2.93 306.77 -4.1 Q 305.64 -5.27 305.02 -6.23 Z" stroke-linecap="round" />
</g>
<g transform="matrix(1.245782666934621 0 0 1.245782666934621 250.65113088849796 512.1966205837173)" id="logo-logo"  >
<g style=""  paint-order="stroke"   >
		<g transform="matrix(1.2949169831813114 0 0 1.2949169831813114 0 0)"  >
<g style=""  paint-order="stroke"   >
		<g transform="matrix(1 0 0 1 -0.11969994903330416 -23.74590430970119)"  >
<path style="stroke: none; stroke-width: 1; stroke-dasharray: none; stroke-linecap: butt; stroke-dashoffset: 0; stroke-linejoin: miter; stroke-miterlimit: 4; fill: rgb(167,21,21); fill-rule: nonzero; opacity: 1;"  paint-order="stroke"  transform=" translate(-75.93921132918842, -76.25076959585797)" d="M 76 21.56 a 54.69 54.69 0 1 0 54.63 54.69 A 54.65 54.65 0 0 0 76 21.56 Z" stroke-linecap="round" />
</g>
		<g transform="matrix(1 0 0 1 -0.11976661770458463 -23.74584269060658)"  >
<path style="stroke: none; stroke-width: 1; stroke-dasharray: none; stroke-linecap: butt; stroke-dashoffset: 0; stroke-linejoin: miter; stroke-miterlimit: 4; fill: rgb(167,21,21); fill-rule: nonzero; opacity: 1;"  paint-order="stroke"  transform=" translate(-75.93914466051714, -76.25083121495258)" d="M 76 17.5 a 58.75 58.75 0 1 0 58.69 58.75 A 58.78 58.78 0 0 0 76 17.5 Z m 0 116.56 a 57.82 57.82 0 1 1 57.75 -57.81 A 57.85 57.85 0 0 1 76 134.06 Z" stroke-linecap="round" />
</g>
		<g transform="matrix(1 0 0 1 0 0)"  >
<path style="stroke: none; stroke-width: 1; stroke-dasharray: none; stroke-linecap: butt; stroke-dashoffset: 0; stroke-linejoin: miter; stroke-miterlimit: 4; fill: rgb(167,21,21); fill-rule: nonzero; opacity: 1;"  paint-order="stroke"  transform=" translate(-76.05891127822173, -99.99667390555916)" d="M 146.48 86.41 c 0.43 -3 5.54 -7.7 5.52 -10.72 s -5.21 -7.66 -5.68 -10.63 s 3 -9 2.11 -11.88 s -7.23 -5.78 -8.56 -8.48 s 0.25 -9.49 -1.47 -12 s -8.62 -3.39 -10.68 -5.58 s -2.56 -9.14 -4.93 -11 s -9.23 -0.7 -11.85 -2.19 s -5.15 -8 -8 -9.06 S 94 7 91 6.31 S 83.75 0.21 80.75 0 s -8 4.62 -11 4.87 S 61 1.19 58.06 1.88 S 51.76 8.67 49 9.79 s -9.44 -0.94 -12 0.58 s -4 8.35 -6.36 10.25 s -9.3 1.87 -11.33 4.1 s -1.38 9.16 -3.06 11.66 s -8.33 4.54 -9.62 7.26 s 1.38 9.17 0.51 12 s -6.63 6.8 -7 9.78 s 4 8.35 4 11.37 S -0.27 85.29 0.2 88.26 s 6.3 6.8 7.21 9.67 S 5.76 107.28 7.08 110 s 8 4.63 9.73 7.11 s 1.17 9.42 3.24 11.61 s 9 2.07 11.39 3.93 c 2.1 1.65 3.55 7.18 5.67 9.44 L 17.59 188.76 L 44 177.39 L 53.43 200 l 22.12 -50.15 l 0.15 0.09 l 24 50.06 l 9.86 -25.57 l 24.91 9.65 l -22 -46.31 c 2.93 -1.11 9 -0.32 11.21 -2.09 c 2.34 -1.9 2.73 -8.85 4.76 -11.07 s 8.92 -3.25 10.59 -5.75 s 0 -9.26 1.29 -12 s 7.57 -5.73 8.43 -8.62 S 146.06 89.4 146.48 86.41 Z M 76 140.9 a 64.65 64.65 0 1 1 64.58 -64.65 A 64.69 64.69 0 0 1 76 140.9 Z" stroke-linecap="round" />
</g>
</g>
</g>
</g>
</g>
<g transform="matrix(1.9699870022450665 0 0 1.9699870022450665 249.83453574704197 481.0175695127601)" id="tagline-5c1db6ff-515a-40af-bb9d-9bce8b71dea7-logo-path"  >
<path style="stroke: rgb(135,19,17); stroke-width: 0; stroke-dasharray: none; stroke-linecap: butt; stroke-dashoffset: 0; stroke-linejoin: miter; stroke-miterlimit: 4; fill: rgb(252,235,163); fill-rule: nonzero; opacity: 1;"  paint-order="stroke"  transform=" translate(-28.365, 17.56)" d="M 0 -30.61 L 0 -30.61 Q 0 -32.57 0.71 -34.2 Q 1.42 -35.83 2.65 -37.13 Q 3.88 -38.43 5.54 -39.41 Q 7.19 -40.38 9.12 -41.04 Q 11.04 -41.69 13.14 -42.01 Q 15.24 -42.34 17.33 -42.34 L 17.33 -42.34 Q 19.65 -42.34 20.94 -41.9 Q 22.23 -41.46 22.84 -40.84 Q 23.45 -40.21 23.56 -39.54 Q 23.68 -38.86 23.68 -38.4 L 23.68 -38.4 L 23.68 -25.46 Q 26.2 -29.08 28.28 -31.89 Q 30.36 -34.69 32.12 -36.77 Q 33.87 -38.86 35.39 -40.27 Q 36.9 -41.69 38.33 -42.55 Q 39.76 -43.42 41.18 -43.78 Q 42.59 -44.15 44.15 -44.15 L 44.15 -44.15 Q 47.86 -44.15 47.86 -41.77 L 47.86 -41.77 Q 47.86 -41.46 47.8 -41.04 Q 47.75 -40.61 47.59 -40.21 Q 47.44 -39.82 47.15 -39.54 Q 46.87 -39.25 46.45 -39.25 L 46.45 -39.25 Q 46.13 -39.25 45.72 -39.56 Q 45.31 -39.88 44.77 -40.26 Q 44.24 -40.64 43.53 -40.97 Q 42.82 -41.29 41.94 -41.29 L 41.94 -41.29 Q 40.98 -41.29 39.75 -40.5 Q 38.52 -39.71 37.09 -38.35 Q 35.66 -36.99 34.11 -35.19 Q 32.57 -33.39 30.98 -31.38 L 30.98 -31.38 Q 35.23 -21.69 38.47 -14.58 Q 41.72 -7.48 44.39 -2.82 Q 47.07 1.84 49.33 4.11 Q 51.6 6.37 53.89 6.37 L 53.89 6.37 Q 54.29 6.37 54.69 6.26 Q 55.08 6.15 55.39 6 L 55.39 6 Q 55.76 5.86 56.13 5.64 L 56.13 5.64 L 56.73 6.74 Q 56.24 7.02 55.41 7.42 Q 54.57 7.82 53.43 8.17 Q 52.28 8.52 50.89 8.78 Q 49.5 9.03 47.92 9.03 L 47.92 9.03 Q 45.74 9.03 43.87 8.35 Q 42 7.67 40.23 6.16 Q 38.46 4.64 36.75 2.19 Q 35.03 -0.25 33.18 -3.79 Q 31.32 -7.33 29.25 -12.04 Q 27.19 -16.74 24.75 -22.8 L 24.75 -22.8 L 23.68 -21.18 L 23.68 -3.71 Q 23.68 -1.53 22.53 -0.54 Q 21.38 0.45 19.03 0.45 L 19.03 0.45 Q 16.65 0.45 15.52 -0.54 Q 14.39 -1.53 14.39 -3.71 L 14.39 -3.71 L 14.39 -37.81 Q 14.39 -38.43 14.25 -38.8 Q 14.1 -39.17 13.85 -39.38 Q 13.59 -39.59 13.24 -39.66 Q 12.89 -39.73 12.46 -39.73 L 12.46 -39.73 Q 11.84 -39.73 10.92 -39.54 Q 10 -39.34 8.98 -38.94 Q 7.96 -38.54 6.92 -37.96 Q 5.89 -37.38 5.08 -36.65 Q 4.28 -35.91 3.77 -35 Q 3.26 -34.1 3.26 -33.05 L 3.26 -33.05 Q 3.26 -32.14 3.5 -31.61 Q 3.74 -31.07 4.05 -30.8 Q 4.36 -30.53 4.69 -30.46 Q 5.01 -30.39 5.15 -30.39 L 5.15 -30.39 Q 5.86 -30.39 6.32 -30.63 Q 6.77 -30.87 7.14 -31.14 Q 7.5 -31.41 7.83 -31.65 Q 8.16 -31.89 8.58 -31.89 L 8.58 -31.89 Q 8.92 -31.89 9.3 -31.73 Q 9.69 -31.58 10.01 -31.24 Q 10.34 -30.9 10.56 -30.35 Q 10.79 -29.79 10.79 -29 L 10.79 -29 Q 10.79 -27.87 10.35 -27.05 Q 9.91 -26.22 9.22 -25.67 Q 8.52 -25.12 7.63 -24.85 Q 6.74 -24.58 5.86 -24.58 L 5.86 -24.58 Q 4.5 -24.58 3.41 -25.05 Q 2.32 -25.52 1.56 -26.34 Q 0.79 -27.16 0.4 -28.26 Q 0 -29.37 0 -30.61 Z" stroke-linecap="round" />
</g>
</svg>